<svg xmlns="http://www.w3.org/2000/svg" width="640" height="360" viewBox="0 0 640 360" role="img" aria-label="Pong game screen">
  <rect width="640" height="360" fill="#000"/>
  <g fill="#f8fafc">
    <rect x="317" y="8" width="6" height="18"/>
    <rect x="317" y="42" width="6" height="18"/>
    <rect x="317" y="76" width="6" height="18"/>
    <rect x="317" y="110" width="6" height="18"/>
    <rect x="317" y="144" width="6" height="18"/>
    <rect x="317" y="178" width="6" height="18"/>
    <rect x="317" y="212" width="6" height="18"/>
    <rect x="317" y="246" width="6" height="18"/>
    <rect x="317" y="280" width="6" height="18"/>
    <rect x="317" y="314" width="6" height="18"/>
    <rect x="28" y="142" width="12" height="78"/>
    <rect x="604" y="98" width="12" height="78"/>
    <rect x="214" y="194" width="12" height="12"/>
    <text x="242" y="70" font-family="monospace" font-size="64" text-anchor="middle" dominant-baseline="middle">0</text>
    <text x="398" y="70" font-family="monospace" font-size="64" text-anchor="middle" dominant-baseline="middle">0</text>
  </g>
</svg>
